<svg viewBox="0 0 48 48"
    class="icon style_icon__1QNOc icon-_deprecated/servicekind_detailWrapFilm style_tileIcon__67bdz">
    <g fill-rule="evenodd">
        <path
            d="M21.855 9.007a1.493 1.493 0 00-.697 1.25 81.933 81.933 0 00-.908-.006h-.009v8.132h.009c.64 0 1.669.03 3.087.09a1.5 1.5 0 002.599.122l.491.025 3.725 13.9H7.699v2.467c.063.018.082.023.103.027a.41.41 0 00.064.009c.022.001.042.002.114.002l22.842-.003.704 2.627H7.699v1.603a.248.248 0 01-.248.248H.373A.373.373 0 010 39.127V28.49a.25.25 0 01.005-.05c.019-1.853.104-3.206.492-5.552 1.429-1.913 2.583-3.14 4.454-3.682-1.485-.27-2.266-.794-2.343-1.573 0-.5.414-.834 1.242-1l1.117.124.814 1.055c.863-1.918 1.957-5.063 3.284-6.934.43-.607 1.533-1.752 2.36-1.752C15.343 9.042 18.282 9 20.24 9c.48 0 1.017.002 1.614.007zm1.64.019l.363.004.065.242-.428-.246zM4.72 26.89a2.742 2.742 0 002.732-2.752 2.742 2.742 0 00-2.732-2.753 2.742 2.742 0 00-2.732 2.753 2.742 2.742 0 002.732 2.752zM20.24 10.25h-.008c-1.916 0-4.81.083-8.684.25-.497.125-.992.696-1.615 1.627-.502.75-1.454 3.044-2.856 6.88 7.085-.417 11.47-.625 13.155-.625h.008V10.25z">
        </path>
        <path
            d="M37.895 22.811l-.05-2.996a1 1 0 01.74-.982l3.593-.963a1 1 0 011.225.707l4.141 15.455a1 1 0 01-.707 1.225l-8.693 2.33a1 1 0 01-1.225-.708l-2.334-8.712a1 1 0 01.169-.864l2.938-3.87a1 1 0 00.203-.622zm-7.74-13.107l9.002-2.412a.5.5 0 01.339.029l3.168 1.464a.5.5 0 01.273.324l.457 1.706a.5.5 0 01-.354.612l-11.59 3.106a.5.5 0 01-.613-.353l-1.035-3.864a.5.5 0 01.353-.612zm-2.639 1.742l1.449-.388.776 2.898-1.448.388a.5.5 0 01-.613-.354l-.517-1.932a.5.5 0 01.353-.612zm9.505 2.63l3.863-1.036 1.036 3.864-3.864 1.035-1.035-3.863zm-3.064.82l.215 3.479a.89.89 0 01-.959.942l-.155-.012a1 1 0 01-.92-.935l-.18-2.938 2-.535zm-11.978-.931l2.898-.777a.5.5 0 11.259.966l-2.898.777a.5.5 0 01-.259-.966zm.93-4.124l2.597 1.5a.5.5 0 01-.5.866l-2.598-1.5a.5.5 0 01.5-.866zm1.33 7.696l1.5-2.598a.5.5 0 11.865.5l-1.5 2.598a.5.5 0 01-.866-.5z">
        </path>
    </g>
</svg>