<svg viewBox="0 0 48 48"
    class="icon style_icon__1QNOc icon-_deprecated/servicekind_repairMaintenance style_tileIcon__67bdz">
    <path
        d="M32.348 22.903H15.633v1.056a.166.166 0 01-.166.165h-4.719a.248.248 0 01-.248-.248V16.86c0-.012.001-.023.003-.034.013-1.223.07-2.116.328-3.665.953-1.261 1.722-2.07 2.97-2.429-.99-.178-1.51-.524-1.562-1.037 0-.33.275-.55.827-.66l.745.082.543.695c.575-1.265 1.305-3.34 2.19-4.575.286-.4 1.022-1.155 1.572-1.155C20.73 4.028 22.688 4 23.994 4s3.266.028 5.878.083c.55 0 1.286.755 1.573 1.155.885 1.235 1.614 3.31 2.19 4.575l.542-.695.745-.083c.552.11.828.33.828.66-.052.513-.57.859-1.555 1.037 1.25.357 2.02 1.167 2.974 2.43.331 1.982.331 2.89.331 4.788l-.019.071v5.855a.248.248 0 01-.248.248h-4.72a.166.166 0 01-.165-.165v-1.056zm0-3.385H15.633v1.629l.069.018a.276.276 0 00.042.005l.076.001 16.355-.002h.076a.276.276 0 00.042-.006.903.903 0 00.055-.015v-1.63zm-18.702-3.714a1.819 1.819 0 001.821-1.816 1.819 1.819 0 00-1.821-1.816 1.819 1.819 0 00-1.821 1.816c0 1.003.815 1.816 1.82 1.816zm20.697 0a1.819 1.819 0 001.82-1.816 1.819 1.819 0 00-1.82-1.816 1.819 1.819 0 00-1.822 1.816c0 1.003.816 1.816 1.822 1.816zM23.994 4.825h-.006c-1.277 0-3.207.055-5.789.166-.331.082-.66.459-1.076 1.073-.335.495-.97 2.008-1.904 4.54 4.723-.276 7.646-.413 8.77-.413h.005V4.825zm0 0v5.366H24c1.124 0 4.047.137 8.77.413-.935-2.532-1.57-4.045-1.905-4.54-.415-.614-.745-.99-1.076-1.073-2.582-.11-4.512-.166-5.789-.166h-.006zM8.5 27.105v14.907l5 .994V44H3v-1.488a.5.5 0 01.5-.5v-30.8a1 1 0 011-1h3a1 1 0 011 1v13.906H16a.5.5 0 01.5.5v.988a.5.5 0 01-.5.5H8.5zm31-1.987V11.211a1 1 0 011-1h3a1 1 0 011 1v30.801a.5.5 0 01.5.5V44H34.5v-.994l5-.994V27.106H32a.5.5 0 01-.5-.5v-.988a.5.5 0 01.5-.5h7.5z"
        fill-rule="evenodd"></path>
</svg>