<svg fill="none" viewBox="0 0 66 80"
    class="icon style_icon__1QNOc icon-_deprecated/doc-dollar/4-bold style_tileIcon__67bdz">
    <path fill-rule="evenodd" clip-rule="evenodd"
        d="M65.5 19.142V70c0 5.523-4.477 10-10 10h-45c-5.523 0-10-4.477-10-10V10c0-5.523 4.477-10 10-10h35.858a10 10 0 017.071 2.929l9.142 9.142a10 10 0 012.93 7.071zm-28.596.546a3.906 3.906 0 10-7.813 0v.946c-1.74.45-3.396 1.202-4.826 2.234-2.511 1.814-4.549 4.703-4.549 8.427 0 4.12 1.887 7.016 4.475 8.98 2.277 1.728 5.157 2.766 7.36 3.561l.12.044c2.513.906 4.27 1.557 5.49 2.436.939.675 1.305 1.282 1.305 2.39 0 1.167-.373 1.799-.9 2.227-.636.516-1.99 1.12-4.568 1.12-3.836 0-5.322-1.352-6.08-2.543a3.906 3.906 0 10-6.59 4.194c1.826 2.871 4.709 4.981 8.763 5.794v.815a3.906 3.906 0 107.813 0v-.81c2.113-.423 4.019-1.231 5.588-2.507 2.598-2.11 3.787-5.106 3.787-8.29 0-4.078-1.977-6.876-4.554-8.731-2.17-1.563-4.91-2.548-7.041-3.314l-.36-.13c-2.47-.89-4.214-1.572-5.41-2.48-.928-.704-1.385-1.418-1.385-2.756 0-.63.306-1.368 1.31-2.093 1.038-.75 2.566-1.256 4.159-1.256 3.588 0 5.352 1.401 6.08 2.544a3.906 3.906 0 006.59-4.194c-1.826-2.87-4.863-4.943-8.764-5.768v-.84z"
        fill="currentColor"></path>
</svg>