<svg fill="none" viewBox="0 0 66 80"
    class="icon style_icon__1QNOc icon-_deprecated/doc-list/4-bold style_tileIcon__67bdz">
    <path fill-rule="evenodd" clip-rule="evenodd"
        d="M65.501 19.142V70c0 5.523-4.477 10-10 10h-45c-5.523 0-10-4.477-10-10V10c0-5.523 4.477-10 10-10H46.36a10 10 0 017.071 2.929l9.142 9.142a10 10 0 012.93 7.071zM15.501 35a5 5 0 100 10 5 5 0 000-10zm0 20a5 5 0 100 10 5 5 0 000-10zm15-20a5 5 0 000 10h20a5 5 0 000-10h-20zm0 20a5 5 0 000 10h20a5 5 0 000-10h-20z"
        fill="currentColor"></path>
</svg>