<svg fill="none" viewBox="0 0 26 32" class="icon style_icon__1QNOc icon-_deprecated/order-parts style_tileIcon__67bdz">
    <path fill-rule="evenodd" clip-rule="evenodd"
        d="M26 28V7.657a4 4 0 00-1.172-2.829l-3.656-3.656A4 4 0 0018.343 0H4a4 4 0 00-4 4v24a4 4 0 004 4h18a4 4 0 004-4zM5 26a2 2 0 012-2h12a2 2 0 110 4H7a2 2 0 01-2-2zM9.5 4.766c0-.423.343-.766.765-.766h5.47c.422 0 .765.343.765.766v5.468a.766.766 0 01-.766.766h-5.469a.766.766 0 01-.765-.766V4.766zM5.766 13a.766.766 0 00-.766.766v5.468c0 .423.343.766.766.766h5.468a.766.766 0 00.766-.766v-5.468a.766.766 0 00-.766-.766H5.766zm9 0a.766.766 0 00-.766.766v5.468c0 .423.343.766.765.766h5.47a.766.766 0 00.765-.766v-5.468a.766.766 0 00-.766-.766h-5.469z"
        fill="currentColor"></path>
</svg>