<svg fill="none" viewBox="0 0 14 14"
    class="icon style_icon__1QNOc icon-_deprecated/quickbooks/4-bold style_tileIcon__67bdz">
    <path fill-rule="evenodd" clip-rule="evenodd"
        d="M7 14A7 7 0 107 0a7 7 0 000 14zM1.72 6.75c-.018 1.538 1.264 2.8 2.865 2.818h.41V8.52h-.41c-1-.024-1.796-.81-1.796-1.771 0-.96.797-1.747 1.796-1.771h.985v5.474c-.007.572.47 1.04 1.064 1.047V3.932H4.585c-1.6.018-2.883 1.28-2.865 2.818zm7.37-2.818h.41c1.59.038 2.86 1.289 2.86 2.818 0 1.53-1.27 2.78-2.86 2.818H7.45V2c.595.007 1.071.475 1.064 1.046v5.475H9.5c1-.024 1.797-.81 1.797-1.771 0-.96-.797-1.747-1.797-1.771H9.09V3.932z"
        fill="currentColor"></path>
</svg>