<svg viewBox="0 0 64 32" class="icon style_icon__1QNOc icon-_deprecated/vehicletype_bicycles style_tileIcon__67bdz">
    <g fill-rule="evenodd">
        <path
            d="M32 29.765c13.807 0 25 .205 25 .458 0 .252-11.193.457-25 .457s-25-.205-25-.457c0-.253 11.193-.458 25-.458">
        </path>
        <path
            d="M31.283 18.013l.54-2.013h-.9v-1h3v1h-1.066l-.608 2.271.073.035L40.702 9H27.063l3.3 9.068a3.012 3.012 0 01.92-.055zm-.265.987H31a2 2 0 10.984.259l-.486 1.816h-1.036L31.018 19zm2.705.74A3 3 0 1128.171 22h-3.226A9.001 9.001 0 017 21a9 9 0 0113.35-7.881L24.352 7.4 23.115 4H23a1 1 0 010-2h6a1 1 0 010 2h-3.757l1.092 3h16.157l-1.005-3.504a1 1 0 01.702-1.241L43.14 2H48v.035A3.5 3.5 0 0147.5 9H47a1 1 0 010-2h.5a1.5 1.5 0 000-3h-3.788l2.354 8.208a9 9 0 11-1.896.645l-1.026-3.577-9.42 10.463zm-5.091-.582l-3.444-9.463-3.207 4.58A8.98 8.98 0 0124.945 20h3.226c.108-.307.265-.59.461-.842zm16.099-4.35a7 7 0 101.888-.672l1.747 6.095a1 1 0 11-1.922.551L44.73 14.81zm-25.537-.039A7 7 0 1022.93 22l-6.43.001a.985.985 0 01-.984-1 3.26 3.26 0 01.589-1.82l3.089-4.41zm1.63 1.159L17.973 20h4.956a6.984 6.984 0 00-2.105-4.072zM30.178 26h.898v1h-3v-1h1.067l.347-1.295c.305.124.628.212.966.258L30.178 26z">
        </path>
    </g>
</svg>