<svg viewBox="0 0 64 32" class="icon style_icon__1QNOc icon-_deprecated/vehicletype_boats style_tileIcon__67bdz">
    <g fill-rule="evenodd">
        <path
            d="M45.642 25.8a17.26 17.26 0 004.224.306c3.302-1.116 7.14-2.905 11.72-5.519-5.981 2.207-11.29 3.597-15.927 4.17-.821.102-1.742.195-2.764.28a20.46 20.46 0 01-.195-.07c-.35-.13-.734-.13-1.083 0-.2.073-.4.144-.6.21-2.74.184-6.06.321-9.963.412a19.51 19.51 0 01-2-.623c-.35-.13-.734-.13-1.083 0-.795.294-1.59.533-2.384.715-2.37.027-4.91.04-7.615.04a19.253 19.253 0 01-2.57-.757 1.561 1.561 0 00-1.075-.003c-.644.234-1.283.433-1.919.597l-6.33-.187a1.561 1.561 0 01-1.473-1.205l-.898-3.845c5.38-1.01 9.283-1.589 11.708-1.735 7.534-.456 21.531 0 26.731 0 4.033 0 11.252.385 21.659 1.157-.737.288-1.464.565-2.182.83-4.553 2.653-9.88 4.396-15.98 5.227zm-17.005.789c.142.01.282.042.417.092.384.142.769.27 1.153.387-.9-.054-1.845-.113-2.835-.176.2-.067.399-.138.599-.211.133-.05.27-.08.41-.092h.256zm10.05.923c.977-.193 1.954-.47 2.93-.831.35-.13.734-.13 1.083 0 .736.272 1.473.496 2.209.673-1.049.16-2.036.237-2.974.237-.803 0-1.885-.026-3.247-.08zm25.118-8.926c-10.407-.772-17.626-1.157-21.659-1.157-5.2 0-19.197-.456-26.731 0-2.425.146-6.328.725-11.708 1.735l.518-1.706a.78.78 0 01.246-.372l2.156-1.802a.78.78 0 01.466-.181l8.316-.366a.78.78 0 01.38.08l.601.297h13.464l10.964-3.737a.78.78 0 01.669.08c1.26.796 2.13 1.372 2.61 1.729.52.385 1.562 1.285 3.123 2.7l14.226 1.312c.267.025.524.118.745.27l1.614 1.118zm-17.398-2.66c-1.257-1.103-2.027-1.76-2.31-1.969-.52-.386-1.495-1.028-2.926-1.928l-10.067 3.43 15.303.466zM.579 21.67h2.933l.195 1.158H.58a.579.579 0 110-1.158zm21.275-9.642h1.95l3.513 1.542.585.772H22.44l-1.17-1.35.585-.964zm3.512-3.858L23.415 2l2.536.386 2.537 5.785-1.951 4.243-2.342-1.157h-1.56l2.73-3.086z">
        </path>
        <path
            d="M2.342 26.232a15.965 15.965 0 005.701 1.054c2.05 0 4.144-.39 6.284-1.168a1.561 1.561 0 011.076.003c2.095.777 4.19 1.165 6.286 1.165 2.094 0 4.188-.388 6.282-1.163.35-.129.734-.129 1.083 0 2.094.775 4.188 1.163 6.281 1.163 2.094 0 4.188-.388 6.282-1.163.35-.129.734-.129 1.083 0 2.094.775 4.188 1.163 6.282 1.163 2.01 0 4.022-.358 6.033-1.072a.592.592 0 01.79.557c0 .526-.332.995-.827 1.17C52.979 28.647 50.98 29 48.982 29c-2.094 0-4.188-.387-6.282-1.162-.35-.13-.734-.13-1.083 0-2.094.775-4.188 1.162-6.282 1.162-2.093 0-4.187-.387-6.28-1.162-.35-.13-.735-.13-1.084 0-2.094.775-4.188 1.162-6.282 1.162-2.096 0-4.191-.388-6.287-1.165a1.561 1.561 0 00-1.075-.003C12.181 28.61 10.086 29 8.043 29c-1.926 0-3.811-.346-5.657-1.038a1.272 1.272 0 01-.825-1.19.577.577 0 01.78-.54z">
        </path>
    </g>
</svg>