<svg viewBox="0 0 64 32" class="icon style_icon__1QNOc icon-_deprecated/vehicletype_cars style_tileIcon__67bdz">
    <g fill-rule="evenodd">
        <path
            d="M32.012 24.616c-16.346 0-29.597.253-29.597.564 0 .31 13.251.563 29.597.563 16.346 0 29.598-.252 29.598-.563 0-.311-13.252-.564-29.598-.564">
        </path>
        <path
            d="M13.653 16.198c-2.477 0-4.485 1.98-4.485 4.42 0 2.442 2.008 4.421 4.485 4.421 2.476 0 4.484-1.979 4.484-4.42 0-2.442-2.008-4.421-4.484-4.421zm4.169-7.838l.299 3.854c-.878-.046-1.727-.086-2.514-.112-.288-.01-.44-.12-.56-.297-.172-.253-.443-.833-.54-1.114-.074-.211-.058-.31.127-.559.247-.333 1.892-1.18 3.188-1.772zm.966 3.889l-.368-4.156c.393-.17.71-.293.878-.34 1.011-.293 2.07-.478 3.093-.49l3.429-.04c.196-.002.434.108.479.223.276.704.34 1.664.7 4.563.098.793.045.578-.847.567-2.2-.026-4.872-.192-7.364-.327zM6.708 22.575c-.91-.069-1.942-.153-2.756-.291-.636-.108-1.14-.248-1.347-.438-.659-.603-.583-2.485-.572-3.45.003-.235.606-.236.62-.48.088-1.487.194-3.134.359-4.662.198-1.834 4.013-1.902 6.351-2.631 1.663-.52 3.033-1.632 5.168-2.563 2.352-1.025 4.405-1.966 6.878-1.966 4.02 0 9.992-.472 13.733.7 3.583 1.122 6.847 3.15 10.245 4.732 4.113.43 8.679 1.254 12.845 2.272 1.348.33 1.935.945 2.349 1.735.45.862.665 1.67.871 2.158.33.026.343-.056.447.134.11.2.049.466.073.793.054.741.042 1.718-.148 2.383-.182.638-.349.948-.668 1.182-.245.18-.534.318-.878.329l-1.526.049c-.911-.165-.74-.28-.681-1.423.008-.171.012-.344.012-.52 0-3.174-2.61-5.746-5.83-5.746s-5.83 2.572-5.83 5.747c0 .322.007.64.029.947.137 1.926.318 1.594-1.453 1.68l-24.46-.026c-1.302-.177-1.228-.015-1.092-1.628.027-.316.036-.642.036-.973 0-3.175-2.61-5.747-5.83-5.747s-5.83 2.572-5.83 5.747c0 .272.007.543.029.81.104 1.32-.27 1.212-1.145 1.146zM39.1 13.029c-.03-.114-.183-.546-.21-1-.048-.766 1.374-.823 2.256-.766-1.71-1.254-4.248-2.589-6.52-3.365-.8-.263-2.968-.603-4.47-.635l-1.932-.04c-.35-.004-.396.156-.293.426.344.91.482 2.875.689 4.195.1.637.253.788.913.793 2.607.021 9.599.515 9.567.392zm13.152 3.169c-2.477 0-4.484 1.98-4.484 4.42 0 2.442 2.007 4.421 4.484 4.421s4.485-1.979 4.485-4.42c0-2.442-2.008-4.421-4.485-4.421z">
        </path>
    </g>
</svg>