<svg viewBox="0 0 64 32" class="icon style_icon__1QNOc icon-_deprecated/vehicletype_motocycles style_tileIcon__67bdz">
    <g fill-rule="evenodd">
        <path
            d="M32.278 28.924c16.364 0 29.63.213 29.63.476s-13.266.476-29.63.476c-16.364 0-29.629-.213-29.629-.476s13.265-.476 29.63-.476">
        </path>
        <path
            d="M38.613 7.412c-.506-1.218-.32-1.41-1.697-1.626a3.742 3.742 0 00-1.123.015c-.109.018-.202-.046-.159-.161l.162-.431.765-.427c.155-.086.11.173.33.346.407.317.496.322.9.16.328-.134.629-.193.938.177.453.543 1.014.81 1.5 1.385.258.307.243.285-.027.385l-1.12.42c-.244.09-.377-.019-.47-.243zM46.03 23.13a18.179 18.179 0 00-.67-.17c-.198-3.59 1.237-5.861 2.483-7.27l-5.124-5.532c-.306-.33-.568-.03-.677.354-1.416 4.981-3.268 9.06-5.921 13.926-.75 1.376-1.912 2.363-3.474 2.363h-9.937c-.603 0-1.057-.038-1.587-.362-.475-.288-.95-.578-1.424-.867-.615-.375-.391-.3-1.076-.173-.272.05-.552.09-.832.13-1.343 2.319-3.84 3.876-6.698 3.876-4.28 0-7.75-3.492-7.75-7.8 0-1.862.649-3.571 1.73-4.912l-.276.068c-.571.206-.852.224-1.214.779-.517.792-.838 2.166-1.012 2.805-.157.572-.712.746-.54-.114.19-.942.38-1.885.568-2.828-.41-.138-.679-.138-.35-.654 1.374-2.16 3.27-3.465 5.561-4.484-.02-.971.382-1.306 1.217-1.367 2.99-.218 4.268-.465 5.099-.37.256.028.458.075.583.31.06.113.117.238.216.297.049.03.175-.003.297-.028.277-.058.353.09.52.294.388.472.755 1.235 1.705 1.872 1.629 1.09 3.337.854 4.949-.07.76-.437 1.506-1.151 2.199-1.693.217-.17.661-.452.916-.196l.154.155c.111.112.252.018.334-.083.585-.716 2.243-2.033 3.565-3.035.626-.474 1.298-.808 1.775-1.063 1.037-.553 1.754-.734 3.296-1.18.166-.048.098-.173-.031-.166-.295.014-.563.122-.864.122-.209 0-.287-.062-.355-.173-.054-.09-.221-.15-.318-.108-.28.123-.588.262-.846.373-.32.137-.844-.497-.295-.807.431-.242.899-.485 1.352-.728.115-.087.086-.188.2-.278.211-.168.752-.308 1.008-.376.177-.114.218-.159.106-.407a1.432 1.432 0 00-.186-.316c-.13-.16-.279-.116-.46-.082-.181.033-.393.068-.563.076-.216.01-.53-.07-.747-.248-.289-.235-.248-.536.056-.725.243-.15.577-.261.752-.264.932-.014 1.448.976 1.741 1.728l.309-.143c.455.036.52.268.975.304 1.091-.577 2.055-.397 2.903.558.552.623 1.282 1.158 1.743 1.828 2.357-1.22 2.684-1.621 4.816-1.84.947-.096.98.263.808 1.028-.14.626-.282 1.248-.422 1.881-.149.669-.01.81-.759.788-.443-.012-.842-.079-1.285-.091-.3.239-1.08-.093-1.38.146l5.98 6.5c.714-.554 1.539-.875 3.057-1.256 1.06-.267 1.946-.18 2.947-.006.306.053.461.197.245.498l-.016.023c3.575.693 6.275 3.858 6.275 7.658 0 4.308-3.47 7.8-7.75 7.8-3.761 0-6.897-2.697-7.601-6.275zm-33.132-6.361l-.8 1.731a3.222 3.222 0 00-1.005-.16 3.251 3.251 0 00-3.217 2.847c-.695-.046-1.234.111-1.35.918-.056.394-.077.799-.139 1.192-.153.98.133 1.29.911 1.482l7.66.837a5.514 5.514 0 01-3.865 1.577c-3.066 0-5.552-2.502-5.552-5.588 0-2.49 1.618-4.599 3.854-5.321l3.625.297-.122.188zm1.434 4.658l2.1-1.36a5.624 5.624 0 01.19 2.042l-2.296-.243a3.342 3.342 0 00.006-.44zm35.351-3.75l1.576 1.702a3.264 3.264 0 00-.871 2.226c0 1.803 1.452 3.265 3.243 3.265s3.244-1.462 3.244-3.265c0-1.803-1.453-3.264-3.244-3.264-.42 0-.822.08-1.19.226l-1.633-1.774a5.495 5.495 0 012.823-.776c3.066 0 5.552 2.502 5.552 5.588 0 3.086-2.486 5.588-5.552 5.588-3.066 0-5.552-2.502-5.552-5.588 0-1.531.612-2.919 1.604-3.928zm-28.88 2.689c-.623-.767-1.97-1.728-.673-1.471l1.579.313c.246.05.646.176.392.496l-.55.69c-.297.37-.444.347-.748-.028zm19.458-9.891c.325-.01.344.19.247.477-.577 1.708-.978 2.954-1.698 4.483-.513 1.09-.757.364-.872-.306-.095-.55-.02-.658-.558-1.058a4.033 4.033 0 00-.538-.33c-1.24-.645-1.791-.721-2.613-.924-.225-.055-.522-.09-.796-.185-.116-.04-.203-.08-.271-.32-.144-.51-.13-.983.458-1.084.892-.153 1.802-.307 2.712-.46 1.39-.235 2.535-.255 3.93-.293zm.95-2.531l-2.61 1.124c-.235.1-.649.448-.122.442l2.233-.025c.402-.004.461-.092.565-.435.114-.373.188-.746-.066-1.106z">
        </path>
    </g>
</svg>