<svg viewBox="0 0 64 32" class="icon style_icon__1QNOc icon-_deprecated/vehicletype_rvs style_tileIcon__67bdz">
    <g fill-rule="evenodd">
        <path
            d="M32.088 28.765c-16.52 0-29.911.205-29.911.458 0 .252 13.392.457 29.911.457 16.52 0 29.912-.205 29.912-.457 0-.253-13.392-.458-29.912-.458">
        </path>
        <path
            d="M14.855 27.716c-.843 0-10.71.104-11.567-.063-.71-.138-.556-3.76-.55-4.385.003-.216.506-.217.498-.443.02-6.43-.175-12.884.016-19.253C3.28 2.628 4.506 2 5.34 2H43.85c1.794 0 3.685.139 5.3 1.023 3.642 1.993 4.988 5.922-.686 5.922h-1.718c.49.187.981.453 1.502.83 1.716 1.245 2.978 3.858 3.72 5.332 1.634.582 4.133 1.335 6.419 2.167.568.207 1.073.327 1.17 1.026.082.578.082 1.514.082 2.21.001.948-.058 1.62.048 1.931.078.232.572.054.69.3.088.185.038.43.058.732.043.683.033 1.584-.119 2.198-.146.588-.28.873-.536 1.09-.195.165-.428.293-.703.303l-1.457.054c-.646-.054-.432-.159-.336-.977.022-.186.033-.375.033-.567 0-2.617-2.093-4.74-4.674-4.74-2.582 0-4.675 2.123-4.675 4.74 0 .427.056.84.16 1.233.224.848.25.936-.695.91H24.847c-.835-.001-.759-.126-.549-.941.099-.384.152-.787.152-1.202 0-2.617-2.093-4.74-4.675-4.74-2.581 0-4.674 2.123-4.674 4.74 0 .393.047.774.136 1.139.081.332.135.985-.382 1.003zm33.95-11.584c-.023-.104-.147-.503-.169-.921-.037-.707 1.06-.318 1.766-.266-.585-1.188-1.406-2.86-2.426-3.941-.98-1.04-2.067-1.223-3.47-1.23l-2.283-.01c-.28-.004-.383.138-.346.4.123.875.252 3.206.512 4.423.124.579.473.721.994.82 2.09.395 5.447.839 5.422.725zm-28.66-6.447h-6.872a.476.476 0 00-.471.478v1.91c0 .262.212.477.47.477h6.874c.259 0 .47-.215.47-.478v-1.91a.475.475 0 00-.47-.477zm32.497 12.243c-1.986 0-3.596 1.633-3.596 3.646 0 2.014 1.61 3.646 3.596 3.646 1.985 0 3.595-1.632 3.595-3.646 0-2.013-1.61-3.646-3.595-3.646zm-32.845 0c-1.986 0-3.595 1.633-3.595 3.646 0 2.014 1.61 3.646 3.595 3.646 1.986 0 3.596-1.632 3.596-3.646 0-2.013-1.61-3.646-3.596-3.646z">
        </path>
    </g>
</svg>