<svg viewBox="0 0 64 32"
    class="icon style_icon__1QNOc icon-_deprecated/vehicletype_semiHeavyDuty style_tileIcon__67bdz">
    <g fill-rule="evenodd">
        <path
            d="M32.007 30.255c-16.228 0-29.384.153-29.384.342 0 .19 13.156.343 29.384.343 16.229 0 29.385-.154 29.385-.343 0-.189-13.156-.342-29.385-.342">
        </path>
        <path
            d="M53.422 21.363c-2.506 0-4.538 2.058-4.538 4.596 0 2.539 2.032 4.597 4.538 4.597 2.506 0 4.537-2.058 4.537-4.597 0-2.538-2.031-4.596-4.537-4.596zM37.17 1.05l-.219.091c-.193.08-.229.25-.167.455l.19.628c.136.475.119 1.155.119 1.63v.41c-1.955-.343-4.45-.391-7.783-.331-1.652.03-1.866-.15-1.866 1.699v14.92c0 .986.059 1.378-.942 1.378h-1.409l-.425-.473c-1.748-1.541-3.574-2.304-5.405-2.238-1.676.061-3.557.754-4.998 2.141-1.783-1.474-3.642-2.152-5.505-2.087-1.026.036-3.168.32-5.3 2.657h-.868c-.569 0-.577.246-.577.854v4.103c0 .313-.01.55.337.55.136 0 .273.002.41.007.723 0 .47-.74.47-1.485 0-3.064 2.853-5.533 5.479-5.548a5.385 5.385 0 014.912 3.065c.096.199.777.24.881.027.894-1.832 2.758-3.092 4.913-3.092 3.025 0 5.478 2.484 5.478 5.548 0 1.288.065 1.485 1.343 1.485h21.905a5.622 5.622 0 01-.2-1.485c0-3.064 2.453-5.548 5.479-5.548 3.025 0 5.477 2.484 5.477 5.548 0 .514-.07 1.012-.199 1.485h2.657c.722 0 .64-.295.64-1.024l-.026-2.37c0-.492.052-.986-.482-.998l-.856-.064-.2-7.135c0-.704-.849-1.179-1.54-1.179l-10.413-.798c-.655-.028-1.176-.248-1.337-.946l-1.09-4.808c-.057-.718-.664-1.222-1.407-1.208h-2.559v-.067c-1.056-1.2-2.305-1.936-4.004-2.371v-.729c0-.54-.01-1.194-.153-1.68l-.257-.87c-.062-.241-.32-.222-.503-.147zM8.71 21.363c-2.505 0-4.537 2.058-4.537 4.596 0 2.539 2.032 4.597 4.538 4.597 2.506 0 4.537-2.058 4.537-4.597 0-2.538-2.031-4.596-4.537-4.596zm10.707 0c-2.506 0-4.538 2.058-4.538 4.596 0 2.539 2.032 4.597 4.538 4.597 2.506 0 4.538-2.058 4.538-4.597 0-2.538-2.032-4.596-4.538-4.596zM33.911 8.349H29.91a.349.349 0 00-.346.35v1.616c0 .193.155.35.346.35h4c.19 0 .346-.157.346-.35V8.7a.349.349 0 00-.345-.35zm10.971.095h-.479c-.307 0-.404.046-.404.391v4.768c0 .526.01.568.537.568h1.317c.389-.007.468-.195.4-.552l-.888-4.74c-.065-.346-.137-.435-.483-.435zm-2.38 0h-3.338c-.472 0-.724.23-.724.728v4.35c0 .493.091.629.591.635 1.205-.019 2.41.008 3.616.014.47.002.557-.113.557-.568V9.105c0-.64-.153-.661-.703-.661z">
        </path>
    </g>
</svg>