<svg viewBox="0 0 64 32" class="icon style_icon__1QNOc icon-_deprecated/vehicletype_trailers style_tileIcon__67bdz">
    <g fill-rule="evenodd">
        <path
            d="M31.48 27.913c12.565 0 22.751.215 22.751.48s-10.186.48-22.752.48c-12.565 0-22.752-.215-22.752-.48s10.187-.48 22.752-.48">
        </path>
        <path
            d="M50.242 24.652h3.627v-.639a1.083 1.083 0 01-.364-.81c0-.6.488-1.087 1.09-1.087.603 0 1.092.487 1.092 1.087 0 .322-.14.611-.364.81v2.088h-5.768c-.33.384-.765.584-1.386.584-3.956 0-8.391.022-13.306.066-.89 0-.809-.13-.585-.986.105-.402.162-.824.162-1.259 0-2.743-2.232-4.968-4.986-4.968-2.753 0-4.986 2.225-4.986 4.968 0 .412.05.811.145 1.193.086.348.144 1.033-.408 1.052-.57 0-5.469-.02-14.696-.06a1.452 1.452 0 01-1.449-1.444L8 7.702a3.63 3.63 0 013.57-3.634c8.027-.144 14.702-.058 20.025.258 9.144.544 16.087 1.592 18.212 7.246 1.998 5.318 1.389 10.034.435 13.08zm-20.765-3.967a3.829 3.829 0 013.836 3.821 3.828 3.828 0 01-3.836 3.822 3.828 3.828 0 01-3.835-3.822 3.829 3.829 0 013.835-3.821zM11.983 6.319a.721.721 0 00-.722.721v17.398c0 .398.323.721.722.721h9.466a.721.721 0 00.722-.721V7.04a.721.721 0 00-.722-.721h-9.466zm.366.724h8.734c.199 0 .36.162.36.361v16.67c0 .2-.161.36-.36.36h-8.734a.36.36 0 01-.36-.36V7.404c0-.199.161-.36.36-.36zm.728.725a.36.36 0 00-.361.36v5.801c0 .2.161.36.36.36h7.28c.198 0 .36-.16.36-.36v-5.8a.36.36 0 00-.36-.36h-7.28zM30.72 6.625a168.574 168.574 0 00-3.107-.144c-.796 0-1.442.646-1.442 1.443v4.923c0 .797.646 1.443 1.442 1.443h18.36a1.443 1.443 0 001.275-2.12c-.484-.91-.874-1.531-1.168-1.863-2.883-3.25-8.55-3.274-15.36-3.682z">
        </path>
    </g>
</svg>